<svg version="1.1" id="Réteg_1" xmlns="http://www.w3.org/2000/svg" xmlns:xlink="http://www.w3.org/1999/xlink" x="0px" y="0px"
	 viewBox="0 0 303 275.2" style="enable-background:new 0 0 303 275.2;" xml:space="preserve">
<path fill="#ffffff" d="M47.4,33.5c-4.8-4.8-6.7-11.8-4.9-18.3c1.8-6.5,6.9-11.6,13.4-13.4C62.4,0.1,69.4,2,74.2,6.7l35.6,35.6l30.9-33.2
	c3.3-3.5,8.4-4.6,12.9-2.9C158,8,161,12.3,161,17.2v76.6l28.4,28.4v-31c0.1-3.8,2.5-7.1,6-8.4c3.5-1.4,7.5-0.6,10.1,2.1
	c18.8,19.1,26,46.8,18.9,72.6l29.5,29.5c13.1-27.2,14.8-58.5,4.7-87c-10.1-28.5-31.1-51.7-58.4-64.6c-5.5-3.2-9.1-8.9-9.5-15.3
	c-0.4-6.4,2.4-12.5,7.5-16.3C203.3,0,210-1,216,1.1c38.6,18,67.7,51.5,80.3,92.2c12.6,40.7,7.3,84.8-14.4,121.4l10.3,10.1
	c4.8,4.8,6.7,11.8,4.9,18.4c-1.8,6.6-6.9,11.7-13.5,13.5c-6.6,1.8-13.6-0.1-18.4-4.9L47.4,33.5z M28.4,196.4h44.9l67.1,71.8
	c3.3,3.7,8.5,4.9,13,3.2c4.6-1.8,7.6-6.2,7.6-11.1v-63.9L47.4,82.7H28.4c-7.5,0-14.8,3-20.1,8.3S0,103.6,0,111.2V168
	c0,7.5,3,14.8,8.3,20.1C13.6,193.4,20.9,196.4,28.4,196.4L28.4,196.4z"/>
</svg>
