<svg version="1.1" id="Réteg_1" xmlns="http://www.w3.org/2000/svg" xmlns:xlink="http://www.w3.org/1999/xlink" x="0px" y="0px"
	 viewBox="0 0 303 276.2" style="enable-background:new 0 0 303 276.2;" xml:space="preserve">
<path fill="#ffffff" d="M0,175.9v-75.8c0-7.5,3-14.8,8.3-20.1c5.3-5.3,12.6-8.3,20.1-8.3h37.9l64.6-62.4c3.3-3.7,8.5-4.9,13-3.2
	c4.6,1.8,7.6,6.2,7.6,11.1v241.5c0,4.9-3,9.3-7.6,11.1c-4.6,1.8-9.8,0.5-13-3.2l-64.6-62.4H28.4c-7.5,0-14.8-3-20.1-8.3
	S0,183.5,0,175.9L0,175.9z M205.6,191.1L205.6,191.1c13.9-14.2,21.7-33.2,21.7-53c0-19.8-7.8-38.9-21.7-53
	c-2.7-2.7-6.6-3.5-10.1-2.1c-3.5,1.4-5.9,4.7-6,8.4v93.4c0.1,3.8,2.5,7.1,6,8.5C198.9,194.6,202.9,193.8,205.6,191.1L205.6,191.1z
	 M216,275.1c34.9-16.4,62.2-45.4,76.4-81.2c14.2-35.8,14.2-75.7,0-111.5C278.2,46.5,250.9,17.5,216,1.1C210-1,203.3,0,198.2,3.8
	c-5.1,3.8-7.9,10-7.5,16.3c0.4,6.4,4,12.1,9.5,15.2c26.1,12.4,46.4,34.1,57,61c10.6,26.8,10.6,56.7,0,83.5c-10.6,26.8-31,48.6-57,61
	c-5.5,3.2-9.1,8.9-9.5,15.2c-0.4,6.4,2.4,12.5,7.5,16.3C203.3,276.2,210,277.2,216,275.1L216,275.1z"/>
</svg>
